<svg width="29" height="29" viewBox="0 0 29 29" fill="none" xmlns="http://www.w3.org/2000/svg">
<path d="M22.1938 23.151H7.15301C6.3326 23.151 5.64893 22.4673 5.64893 21.6469V7.15301C5.64893 6.3326 6.3326 5.64893 7.15301 5.64893H22.1938C23.0142 5.64893 23.6979 6.3326 23.6979 7.15301V21.6469C23.6979 22.4673 23.0142 23.151 22.1938 23.151Z" stroke="white" stroke-width="0.911565" stroke-miterlimit="10" stroke-linecap="round" stroke-linejoin="round"/>
<path d="M11.5742 5.64897V4.23605H9.34082V2.82312" stroke="white" stroke-width="0.911565" stroke-miterlimit="10" stroke-linecap="round" stroke-linejoin="round"/>
<path d="M9.34089 2.82313C9.84433 2.82313 10.2525 2.41501 10.2525 1.91156C10.2525 1.40812 9.84433 1 9.34089 1C8.83744 1 8.42932 1.40812 8.42932 1.91156C8.42932 2.41501 8.83744 2.82313 9.34089 2.82313Z" stroke="white" stroke-width="0.911565" stroke-miterlimit="10" stroke-linecap="round" stroke-linejoin="round"/>
<path d="M13.1238 2.82313C13.6273 2.82313 14.0354 2.41501 14.0354 1.91156C14.0354 1.40812 13.6273 1 13.1238 1C12.6204 1 12.2123 1.40812 12.2123 1.91156C12.2123 2.41501 12.6204 2.82313 13.1238 2.82313Z" stroke="white" stroke-width="0.911565" stroke-miterlimit="10" stroke-linecap="round" stroke-linejoin="round"/>
<path d="M13.1238 5.64897V2.82312" stroke="white" stroke-width="0.911565" stroke-miterlimit="10" stroke-linecap="round" stroke-linejoin="round"/>
<path d="M17.7728 5.64897V4.23605H20.0062V2.82312" stroke="white" stroke-width="0.911565" stroke-miterlimit="10" stroke-linecap="round" stroke-linejoin="round"/>
<path d="M20.0062 2.82313C20.5096 2.82313 20.9177 2.41501 20.9177 1.91156C20.9177 1.40812 20.5096 1 20.0062 1C19.5027 1 19.0946 1.40812 19.0946 1.91156C19.0946 2.41501 19.5027 2.82313 20.0062 2.82313Z" stroke="white" stroke-width="0.911565" stroke-miterlimit="10" stroke-linecap="round" stroke-linejoin="round"/>
<path d="M16.2231 2.82313C16.7265 2.82313 17.1347 2.41501 17.1347 1.91156C17.1347 1.40812 16.7265 1 16.2231 1C15.7196 1 15.3115 1.40812 15.3115 1.91156C15.3115 2.41501 15.7196 2.82313 16.2231 2.82313Z" stroke="white" stroke-width="0.911565" stroke-miterlimit="10" stroke-linecap="round" stroke-linejoin="round"/>
<path d="M16.2231 5.64897V2.82312" stroke="white" stroke-width="0.911565" stroke-miterlimit="10" stroke-linecap="round" stroke-linejoin="round"/>
<path d="M17.7728 23.151V24.5639H20.0062V25.9769" stroke="white" stroke-width="0.911565" stroke-miterlimit="10" stroke-linecap="round" stroke-linejoin="round"/>
<path d="M20.0062 27.8001C20.5096 27.8001 20.9177 27.3919 20.9177 26.8885C20.9177 26.3851 20.5096 25.9769 20.0062 25.9769C19.5027 25.9769 19.0946 26.3851 19.0946 26.8885C19.0946 27.3919 19.5027 27.8001 20.0062 27.8001Z" stroke="white" stroke-width="0.911565" stroke-miterlimit="10" stroke-linecap="round" stroke-linejoin="round"/>
<path d="M16.2231 27.8001C16.7265 27.8001 17.1347 27.3919 17.1347 26.8885C17.1347 26.3851 16.7265 25.9769 16.2231 25.9769C15.7196 25.9769 15.3115 26.3851 15.3115 26.8885C15.3115 27.3919 15.7196 27.8001 16.2231 27.8001Z" stroke="white" stroke-width="0.911565" stroke-miterlimit="10" stroke-linecap="round" stroke-linejoin="round"/>
<path d="M16.2231 23.151V25.9769" stroke="white" stroke-width="0.911565" stroke-miterlimit="10" stroke-linecap="round" stroke-linejoin="round"/>
<path d="M11.5742 23.151V24.5639H9.34082V25.9769" stroke="white" stroke-width="0.911565" stroke-miterlimit="10" stroke-linecap="round" stroke-linejoin="round"/>
<path d="M9.34089 27.8001C9.84433 27.8001 10.2525 27.3919 10.2525 26.8885C10.2525 26.3851 9.84433 25.9769 9.34089 25.9769C8.83744 25.9769 8.42932 26.3851 8.42932 26.8885C8.42932 27.3919 8.83744 27.8001 9.34089 27.8001Z" stroke="white" stroke-width="0.911565" stroke-miterlimit="10" stroke-linecap="round" stroke-linejoin="round"/>
<path d="M13.1238 27.8001C13.6273 27.8001 14.0354 27.3919 14.0354 26.8885C14.0354 26.3851 13.6273 25.9769 13.1238 25.9769C12.6204 25.9769 12.2123 26.3851 12.2123 26.8885C12.2123 27.3919 12.6204 27.8001 13.1238 27.8001Z" stroke="white" stroke-width="0.911565" stroke-miterlimit="10" stroke-linecap="round" stroke-linejoin="round"/>
<path d="M13.1238 23.151V25.9769" stroke="white" stroke-width="0.911565" stroke-miterlimit="10" stroke-linecap="round" stroke-linejoin="round"/>
<path d="M23.698 11.3007H25.1109V9.06738H26.5238" stroke="white" stroke-width="0.911565" stroke-miterlimit="10" stroke-linecap="round" stroke-linejoin="round"/>
<path d="M27.4354 9.97889C27.9388 9.97889 28.3469 9.57077 28.3469 9.06733C28.3469 8.56388 27.9388 8.15576 27.4354 8.15576C26.9319 8.15576 26.5238 8.56388 26.5238 9.06733C26.5238 9.57077 26.9319 9.97889 27.4354 9.97889Z" stroke="white" stroke-width="0.911565" stroke-miterlimit="10" stroke-linecap="round" stroke-linejoin="round"/>
<path d="M27.4354 13.7619C27.9388 13.7619 28.3469 13.3537 28.3469 12.8503C28.3469 12.3468 27.9388 11.9387 27.4354 11.9387C26.9319 11.9387 26.5238 12.3468 26.5238 12.8503C26.5238 13.3537 26.9319 13.7619 27.4354 13.7619Z" stroke="white" stroke-width="0.911565" stroke-miterlimit="10" stroke-linecap="round" stroke-linejoin="round"/>
<path d="M23.698 12.8503H26.5238" stroke="white" stroke-width="0.911565" stroke-miterlimit="10" stroke-linecap="round" stroke-linejoin="round"/>
<path d="M23.698 17.4993H25.1109V19.7326H26.5238" stroke="white" stroke-width="0.911565" stroke-miterlimit="10" stroke-linecap="round" stroke-linejoin="round"/>
<path d="M27.4354 20.6442C27.9388 20.6442 28.3469 20.2361 28.3469 19.7326C28.3469 19.2292 27.9388 18.821 27.4354 18.821C26.9319 18.821 26.5238 19.2292 26.5238 19.7326C26.5238 20.2361 26.9319 20.6442 27.4354 20.6442Z" stroke="white" stroke-width="0.911565" stroke-miterlimit="10" stroke-linecap="round" stroke-linejoin="round"/>
<path d="M27.4354 16.8612C27.9388 16.8612 28.3469 16.4531 28.3469 15.9497C28.3469 15.4462 27.9388 15.0381 27.4354 15.0381C26.9319 15.0381 26.5238 15.4462 26.5238 15.9497C26.5238 16.4531 26.9319 16.8612 27.4354 16.8612Z" stroke="white" stroke-width="0.911565" stroke-miterlimit="10" stroke-linecap="round" stroke-linejoin="round"/>
<path d="M23.698 15.9497H26.5238" stroke="white" stroke-width="0.911565" stroke-miterlimit="10" stroke-linecap="round" stroke-linejoin="round"/>
<path d="M5.64897 17.4993H4.23605V19.7326H2.82312" stroke="white" stroke-width="0.911565" stroke-miterlimit="10" stroke-linecap="round" stroke-linejoin="round"/>
<path d="M1.91156 20.6442C2.41501 20.6442 2.82313 20.2361 2.82313 19.7326C2.82313 19.2292 2.41501 18.821 1.91156 18.821C1.40812 18.821 1 19.2292 1 19.7326C1 20.2361 1.40812 20.6442 1.91156 20.6442Z" stroke="white" stroke-width="0.911565" stroke-miterlimit="10" stroke-linecap="round" stroke-linejoin="round"/>
<path d="M1.91156 16.8612C2.41501 16.8612 2.82313 16.4531 2.82313 15.9497C2.82313 15.4462 2.41501 15.0381 1.91156 15.0381C1.40812 15.0381 1 15.4462 1 15.9497C1 16.4531 1.40812 16.8612 1.91156 16.8612Z" stroke="white" stroke-width="0.911565" stroke-miterlimit="10" stroke-linecap="round" stroke-linejoin="round"/>
<path d="M5.64897 15.9497H2.82312" stroke="white" stroke-width="0.911565" stroke-miterlimit="10" stroke-linecap="round" stroke-linejoin="round"/>
<path d="M5.64897 11.3007H4.23605V9.06738H2.82312" stroke="white" stroke-width="0.911565" stroke-miterlimit="10" stroke-linecap="round" stroke-linejoin="round"/>
<path d="M1.91156 9.97889C2.41501 9.97889 2.82313 9.57077 2.82313 9.06733C2.82313 8.56388 2.41501 8.15576 1.91156 8.15576C1.40812 8.15576 1 8.56388 1 9.06733C1 9.57077 1.40812 9.97889 1.91156 9.97889Z" stroke="white" stroke-width="0.911565" stroke-miterlimit="10" stroke-linecap="round" stroke-linejoin="round"/>
<path d="M1.91156 13.7619C2.41501 13.7619 2.82313 13.3537 2.82313 12.8503C2.82313 12.3468 2.41501 11.9387 1.91156 11.9387C1.40812 11.9387 1 12.3468 1 12.8503C1 13.3537 1.40812 13.7619 1.91156 13.7619Z" stroke="white" stroke-width="0.911565" stroke-miterlimit="10" stroke-linecap="round" stroke-linejoin="round"/>
<path d="M5.64897 12.8503H2.82312" stroke="white" stroke-width="0.911565" stroke-miterlimit="10" stroke-linecap="round" stroke-linejoin="round"/>
<path d="M11.6654 10.0245L10.9817 9.3408L12.1667 8.15576L12.8504 8.83944C13.1694 8.65713 13.4885 8.52039 13.8531 8.42923V7.42651H15.4939V8.42923C15.8586 8.52039 16.1776 8.65713 16.4967 8.83944L17.1803 8.15576L18.3654 9.3408L17.6817 10.0245C17.864 10.3435 18.0007 10.6626 18.0919 11.0272H19.0946V12.668H18.0919C18.0007 13.0326 17.864 13.3517 17.6817 13.6707L18.3654 14.3544L17.1803 15.5394L16.4967 14.8102C16.1776 14.9925 15.8586 15.1292 15.4939 15.2204V16.2231H13.8531V15.2204C13.4885 15.1292 13.1694 14.9925 12.8504 14.8102L12.1667 15.4939L10.9817 14.3088L11.6654 13.6252C11.4831 13.3061 11.3463 12.9871 11.2552 12.6224H10.2524V10.9816H11.2552C11.3463 10.6626 11.4831 10.2979 11.6654 10.0245Z" stroke="white" stroke-width="0.911565" stroke-miterlimit="10" stroke-linecap="round" stroke-linejoin="round"/>
<path d="M14.6735 21.3735C14.1266 21.3735 13.6708 20.9177 13.6708 20.3708V17.9095H15.7218V20.3252C15.6762 20.9177 15.2204 21.3735 14.6735 21.3735Z" stroke="white" stroke-width="0.911565" stroke-miterlimit="10" stroke-linecap="round" stroke-linejoin="round"/>
<path d="M14.6735 16.2231V17.864" stroke="white" stroke-width="0.911565" stroke-miterlimit="10" stroke-linecap="round" stroke-linejoin="round"/>
<path d="M14.6735 13.534C15.6048 13.534 16.3599 12.779 16.3599 11.8476C16.3599 10.9163 15.6048 10.1613 14.6735 10.1613C13.7421 10.1613 12.9871 10.9163 12.9871 11.8476C12.9871 12.779 13.7421 13.534 14.6735 13.534Z" stroke="white" stroke-width="0.911565" stroke-miterlimit="10" stroke-linecap="round" stroke-linejoin="round"/>
</svg>
