<svg width="27" height="26" viewBox="0 0 27 26" fill="none" xmlns="http://www.w3.org/2000/svg">
<path d="M7.7862 18.5448H4.76551C3.73103 18.5448 2.90344 17.7173 2.90344 16.6828V3.35864H23.8414V16.6828C23.8414 17.7173 23.0138 18.5448 21.9793 18.5448H18.3793" stroke="white" stroke-width="0.827586" stroke-miterlimit="10" stroke-linecap="round" stroke-linejoin="round"/>
<path d="M24.5448 3.35862H2.2C1.53793 3.35862 1 2.82069 1 2.15862C1 1.53793 1.53793 1 2.2 1H24.5448C25.2069 1 25.7448 1.53793 25.7448 2.2C25.7448 2.82069 25.2069 3.35862 24.5448 3.35862Z" stroke="white" stroke-width="0.827586" stroke-miterlimit="10" stroke-linecap="round" stroke-linejoin="round"/>
<path d="M16.7241 17.2621V19.4552L19 20.6138V22.5173" stroke="white" stroke-width="0.827586" stroke-miterlimit="10" stroke-linecap="round" stroke-linejoin="round"/>
<path d="M19 25C19.6856 25 20.2414 24.4442 20.2414 23.7586C20.2414 23.073 19.6856 22.5172 19 22.5172C18.3144 22.5172 17.7586 23.073 17.7586 23.7586C17.7586 24.4442 18.3144 25 19 25Z" stroke="white" stroke-width="0.827586" stroke-miterlimit="10" stroke-linecap="round" stroke-linejoin="round"/>
<path d="M9.44139 17.2621V19.4552L7.20691 20.6138V22.5173" stroke="white" stroke-width="0.827586" stroke-miterlimit="10" stroke-linecap="round" stroke-linejoin="round"/>
<path d="M7.20689 25C7.89249 25 8.44827 24.4442 8.44827 23.7586C8.44827 23.073 7.89249 22.5172 7.20689 22.5172C6.5213 22.5172 5.96552 23.073 5.96552 23.7586C5.96552 24.4442 6.5213 25 7.20689 25Z" stroke="white" stroke-width="0.827586" stroke-miterlimit="10" stroke-linecap="round" stroke-linejoin="round"/>
<path d="M13.0827 24.7931C13.7683 24.7931 14.3241 24.2373 14.3241 23.5517C14.3241 22.8661 13.7683 22.3103 13.0827 22.3103C12.3972 22.3103 11.8414 22.8661 11.8414 23.5517C11.8414 24.2373 12.3972 24.7931 13.0827 24.7931Z" stroke="white" stroke-width="0.827586" stroke-miterlimit="10" stroke-linecap="round" stroke-linejoin="round"/>
<path d="M13.0828 17.0966V22.3103" stroke="white" stroke-width="0.827586" stroke-miterlimit="10" stroke-linecap="round" stroke-linejoin="round"/>
<path d="M8.32414 13.0827C10.1752 13.0827 11.6759 11.5821 11.6759 9.731C11.6759 7.87989 10.1752 6.37927 8.32414 6.37927C6.47303 6.37927 4.97241 7.87989 4.97241 9.731C4.97241 11.5821 6.47303 13.0827 8.32414 13.0827Z" stroke="white" stroke-width="0.827586" stroke-miterlimit="10" stroke-linecap="round" stroke-linejoin="round"/>
<path d="M8.32416 6.37927V9.731L11.2621 11.3034" stroke="white" stroke-width="0.827586" stroke-miterlimit="10" stroke-linecap="round" stroke-linejoin="round"/>
<path d="M16.5172 8.03442H14.5724V12.131H16.5172V8.03442Z" stroke="white" stroke-width="0.827586" stroke-miterlimit="10" stroke-linecap="round" stroke-linejoin="round"/>
<path d="M18.462 6.83447H16.5172V12.131H18.462V6.83447Z" stroke="white" stroke-width="0.827586" stroke-miterlimit="10" stroke-linecap="round" stroke-linejoin="round"/>
<path d="M20.4069 5.17932H18.4621V12.131H20.4069V5.17932Z" stroke="white" stroke-width="0.827586" stroke-miterlimit="10" stroke-linecap="round" stroke-linejoin="round"/>
<path d="M12.8345 12.131H22.1448" stroke="white" stroke-width="0.827586" stroke-miterlimit="10" stroke-linecap="round" stroke-linejoin="round"/>
</svg>
