<svg width="31" height="29" viewBox="0 0 31 29" fill="none" xmlns="http://www.w3.org/2000/svg">
<path d="M22.6284 19.6483L24.4945 22.5656L21.9585 25.5974L19.566 23.3093C18.896 23.7669 18.2261 24.1101 17.4605 24.339L17.0777 28H13.489L13.1062 24.339C12.3405 24.1101 11.6706 23.7669 11.0007 23.3093L8.56036 25.5974L5.97644 22.5084L7.84261 19.5911" stroke="white" stroke-miterlimit="10" stroke-linecap="round" stroke-linejoin="round"/>
<path d="M7.89046 9.3517L5.97644 6.49153L8.51251 3.45975L10.9529 5.69068C11.6228 5.23306 12.2927 4.88983 13.0583 4.66102L13.4411 1H17.0299L17.4127 4.66102C18.1783 4.88983 18.8482 5.23306 19.5181 5.69068L21.9585 3.45975L24.4945 6.49153L22.6284 9.3517" stroke="white" stroke-miterlimit="10" stroke-linecap="round" stroke-linejoin="round"/>
<path d="M19.901 19.6483H10.618C10.0438 19.6483 9.56531 19.0763 9.56531 18.3899V11.9831C9.56531 11.2966 10.0438 10.7246 10.618 10.7246H19.8531C20.4273 10.7246 20.9059 11.2966 20.9059 11.9831V18.3899C20.9537 19.0763 20.4752 19.6483 19.901 19.6483Z" stroke="white" stroke-miterlimit="10" stroke-linecap="round" stroke-linejoin="round"/>
<path d="M17.5562 10.7246H12.9625V9.00847C12.9625 8.49364 13.3453 8.03601 13.776 8.03601H16.7427C17.1734 8.03601 17.5562 8.49364 17.5562 9.00847V10.7246Z" stroke="white" stroke-miterlimit="10" stroke-linecap="round" stroke-linejoin="round"/>
<path d="M9.85242 11.1823L11.3358 13.6992C11.6707 14.214 12.1492 14.5573 12.6756 14.5573H17.7956C18.3219 14.5573 18.8483 14.2712 19.1354 13.6992L20.6188 11.1823" stroke="white" stroke-miterlimit="10" stroke-linecap="round" stroke-linejoin="round"/>
<path d="M15.2594 13.356V15.5297" stroke="white" stroke-miterlimit="10" stroke-linecap="round" stroke-linejoin="round"/>
<path d="M22.8198 11.8687H24.7338L25.7387 9.52332H27.3656" stroke="white" stroke-miterlimit="10" stroke-linecap="round" stroke-linejoin="round"/>
<path d="M28.4183 10.839C29.0261 10.839 29.5189 10.25 29.5189 9.52332C29.5189 8.79669 29.0261 8.20764 28.4183 8.20764C27.8105 8.20764 27.3177 8.79669 27.3177 9.52332C27.3177 10.25 27.8105 10.839 28.4183 10.839Z" stroke="white" stroke-miterlimit="10" stroke-linecap="round" stroke-linejoin="round"/>
<path d="M22.8198 17.1313H24.7338L25.7387 19.4767H27.3656" stroke="white" stroke-miterlimit="10" stroke-linecap="round" stroke-linejoin="round"/>
<path d="M28.4183 20.7924C29.0261 20.7924 29.5189 20.2033 29.5189 19.4767C29.5189 18.7501 29.0261 18.161 28.4183 18.161C27.8105 18.161 27.3177 18.7501 27.3177 19.4767C27.3177 20.2033 27.8105 20.7924 28.4183 20.7924Z" stroke="white" stroke-miterlimit="10" stroke-linecap="round" stroke-linejoin="round"/>
<path d="M28.4183 15.8157C29.0261 15.8157 29.5189 15.2266 29.5189 14.5C29.5189 13.7734 29.0261 13.1843 28.4183 13.1843C27.8105 13.1843 27.3177 13.7734 27.3177 14.5C27.3177 15.2266 27.8105 15.8157 28.4183 15.8157Z" stroke="white" stroke-miterlimit="10" stroke-linecap="round" stroke-linejoin="round"/>
<path d="M22.8198 14.5H27.3656" stroke="white" stroke-miterlimit="10" stroke-linecap="round" stroke-linejoin="round"/>
<path d="M7.69899 11.8687H5.78497L4.78011 9.52332H3.1532" stroke="white" stroke-miterlimit="10" stroke-linecap="round" stroke-linejoin="round"/>
<path d="M2.10056 10.839C2.70838 10.839 3.20112 10.25 3.20112 9.52332C3.20112 8.79669 2.70838 8.20764 2.10056 8.20764C1.49274 8.20764 1 8.79669 1 9.52332C1 10.25 1.49274 10.839 2.10056 10.839Z" stroke="white" stroke-miterlimit="10" stroke-linecap="round" stroke-linejoin="round"/>
<path d="M7.69899 17.1313H5.78497L4.78011 19.4767H3.1532" stroke="white" stroke-miterlimit="10" stroke-linecap="round" stroke-linejoin="round"/>
<path d="M2.10056 20.7924C2.70838 20.7924 3.20112 20.2033 3.20112 19.4767C3.20112 18.7501 2.70838 18.161 2.10056 18.161C1.49274 18.161 1 18.7501 1 19.4767C1 20.2033 1.49274 20.7924 2.10056 20.7924Z" stroke="white" stroke-miterlimit="10" stroke-linecap="round" stroke-linejoin="round"/>
<path d="M2.10056 15.8157C2.70838 15.8157 3.20112 15.2266 3.20112 14.5C3.20112 13.7734 2.70838 13.1843 2.10056 13.1843C1.49274 13.1843 1 13.7734 1 14.5C1 15.2266 1.49274 15.8157 2.10056 15.8157Z" stroke="white" stroke-miterlimit="10" stroke-linecap="round" stroke-linejoin="round"/>
<path d="M7.69899 14.5H3.1532" stroke="white" stroke-miterlimit="10" stroke-linecap="round" stroke-linejoin="round"/>
</svg>
