<svg width="24" height="23" viewBox="0 0 24 23" fill="none" xmlns="http://www.w3.org/2000/svg">
<path d="M21.7327 22H2.18364C1.53455 22 1 21.4655 1 20.8164V2.18364C1 1.53455 1.53455 1 2.18364 1H21.6945C22.3436 1 22.8782 1.53455 22.8782 2.18364V20.8164C22.8782 21.4655 22.3818 22 21.7327 22Z" stroke="white" stroke-width="0.763636" stroke-miterlimit="10" stroke-linecap="round" stroke-linejoin="round"/>
<path d="M1.03821 4.89453H22.8782" stroke="white" stroke-width="0.763636" stroke-miterlimit="10" stroke-linecap="round" stroke-linejoin="round"/>
<path d="M19.06 13.6C19.06 13.6 15.8909 17.5709 11.9581 17.5709C8.02541 17.5709 4.85632 13.6 4.85632 13.6C4.85632 13.6 8.02541 9.59094 11.9581 9.59094C15.8909 9.59094 19.06 13.6 19.06 13.6Z" stroke="white" stroke-width="0.763636" stroke-miterlimit="10" stroke-linecap="round" stroke-linejoin="round"/>
<path d="M7.26184 11.3473V9.43823" stroke="white" stroke-width="0.763636" stroke-miterlimit="10" stroke-linecap="round" stroke-linejoin="round"/>
<path d="M7.26189 9.43821C7.81016 9.43821 8.25462 8.99375 8.25462 8.44549C8.25462 7.89722 7.81016 7.45276 7.26189 7.45276C6.71362 7.45276 6.26917 7.89722 6.26917 8.44549C6.26917 8.99375 6.71362 9.43821 7.26189 9.43821Z" stroke="white" stroke-width="0.763636" stroke-miterlimit="10" stroke-linecap="round" stroke-linejoin="round"/>
<path d="M16.6545 11.3473V9.43823" stroke="white" stroke-width="0.763636" stroke-miterlimit="10" stroke-linecap="round" stroke-linejoin="round"/>
<path d="M16.6546 9.43821C17.2029 9.43821 17.6473 8.99375 17.6473 8.44549C17.6473 7.89722 17.2029 7.45276 16.6546 7.45276C16.1063 7.45276 15.6619 7.89722 15.6619 8.44549C15.6619 8.99375 16.1063 9.43821 16.6546 9.43821Z" stroke="white" stroke-width="0.763636" stroke-miterlimit="10" stroke-linecap="round" stroke-linejoin="round"/>
<path d="M11.9582 8.52183C12.5064 8.52183 12.9509 8.07737 12.9509 7.5291C12.9509 6.98084 12.5064 6.53638 11.9582 6.53638C11.4099 6.53638 10.9655 6.98084 10.9655 7.5291C10.9655 8.07737 11.4099 8.52183 11.9582 8.52183Z" stroke="white" stroke-width="0.763636" stroke-miterlimit="10" stroke-linecap="round" stroke-linejoin="round"/>
<path d="M11.9581 9.59094V8.52185" stroke="white" stroke-width="0.763636" stroke-miterlimit="10" stroke-linecap="round" stroke-linejoin="round"/>
<path d="M16.6545 17.7618V15.8146" stroke="white" stroke-width="0.763636" stroke-miterlimit="10" stroke-linecap="round" stroke-linejoin="round"/>
<path d="M16.6546 19.7473C17.2029 19.7473 17.6473 19.3028 17.6473 18.7546C17.6473 18.2063 17.2029 17.7618 16.6546 17.7618C16.1063 17.7618 15.6619 18.2063 15.6619 18.7546C15.6619 19.3028 16.1063 19.7473 16.6546 19.7473Z" stroke="white" stroke-width="0.763636" stroke-miterlimit="10" stroke-linecap="round" stroke-linejoin="round"/>
<path d="M7.26184 17.7618V15.8146" stroke="white" stroke-width="0.763636" stroke-miterlimit="10" stroke-linecap="round" stroke-linejoin="round"/>
<path d="M7.26189 19.7473C7.81016 19.7473 8.25462 19.3028 8.25462 18.7546C8.25462 18.2063 7.81016 17.7618 7.26189 17.7618C6.71362 17.7618 6.26917 18.2063 6.26917 18.7546C6.26917 19.3028 6.71362 19.7473 7.26189 19.7473Z" stroke="white" stroke-width="0.763636" stroke-miterlimit="10" stroke-linecap="round" stroke-linejoin="round"/>
<path d="M11.9582 20.6637C12.5064 20.6637 12.9509 20.2192 12.9509 19.671C12.9509 19.1227 12.5064 18.6782 11.9582 18.6782C11.4099 18.6782 10.9655 19.1227 10.9655 19.671C10.9655 20.2192 11.4099 20.6637 11.9582 20.6637Z" stroke="white" stroke-width="0.763636" stroke-miterlimit="10" stroke-linecap="round" stroke-linejoin="round"/>
<path d="M11.9581 18.6782V17.5709" stroke="white" stroke-width="0.763636" stroke-miterlimit="10" stroke-linecap="round" stroke-linejoin="round"/>
<path d="M9.36182 13.7908C9.36182 12.6836 10.2782 11.7672 11.3855 11.7672" stroke="white" stroke-width="0.763636" stroke-miterlimit="10" stroke-linecap="round" stroke-linejoin="round"/>
<path d="M14.0582 13.3708C14.0582 14.4781 13.1418 15.3945 12.0345 15.3945" stroke="white" stroke-width="0.763636" stroke-miterlimit="10" stroke-linecap="round" stroke-linejoin="round"/>
<path d="M2.90906 2.98547H4.24542" stroke="white" stroke-width="0.763636" stroke-miterlimit="10" stroke-linecap="round" stroke-linejoin="round"/>
<path d="M5.96362 2.98547H7.26181" stroke="white" stroke-width="0.763636" stroke-miterlimit="10" stroke-linecap="round" stroke-linejoin="round"/>
</svg>
